#!OML:ASF E:\Steps\Project 1\Capture day 1\Session 2\Subject.ASF
:FULLY-SPECIFIED
:DEGREES
22
root -1.01839 17.9934 21.0178 -153.621 0.00531037 177.894
lowerback -25.6064 -3.13573 -5.86631
upperback 0.331786 -2.66987 0.075137
thorax 15.1012 -1.76542 2.41363
lowerneck -0.949318 1.70489 -3.25726
upperneck 13.1539 2.97471 1.45635
head 4.43707 1.64112 1.20779
rclavicle 1.93815e-014 1.19271e-014
rhumerus -40.4698 -13.6368 -81.4015
rradius 37.6098
rwrist -5.90056
rhand -10.1039 -52.2806
rfingers 7.12502
rthumb 15.8836 -441.649
lclavicle 1.93815e-014 1.19271e-014
lhumerus -29.1951 2.80472 80.1232
lradius 28.4094
lwrist 1.12373
lhand -21.0099 -18.6658
lfingers 7.12502
lthumb 5.36483 11.2463
rfemur -26.4373 7.76656 19.3609
rtibia 9.08185
rfoot -17.6509 -4.19015
rtoes -23.3881
lfemur -28.5707 -10.3363 -21.6825
ltibia 14.1346
lfoot -9.44089 -0.199785
ltoes -33.2178
23
root -1.02281 17.9903 21.0218 -153.536 0.0830978 177.926
lowerback -25.5709 -3.08805 -5.84247
upperback 0.273956 -2.61764 0.0217498
thorax 15.0018 -1.73766 2.36019
lowerneck -0.984442 1.68775 -3.18049
upperneck 13.2037 2.94599 1.5054
head 4.46314 1.63352 1.21148
rclavicle -1.28216e-014 3.97569e-016
rhumerus -40.5918 -13.6353 -81.6452
rradius 37.8217
rwrist -5.89464
rhand -8.09899 -56.2181
rfingers 7.12502
rthumb 17.8136 -445.422
lclavicle -1.28216e-014 3.97569e-016
lhumerus -29.3049 2.40661 80.1203
lradius 28.6481
lwrist 1.06944
lhand -21.0994 -18.618
lfingers 7.12502
lthumb 5.27835 11.2962
rfemur -26.5943 7.88188 19.3216
rtibia 9.13988
rfoot -17.6036 -4.22874
rtoes -23.0984
lfemur -28.6839 -10.2324 -21.667
ltibia 14.1487
lfoot -9.43375 -0.21298
ltoes -32.4344
24
root -1.02974 17.9903 21.0258 -153.524 0.15553 177.914
lowerback -25.5439 -3.05455 -5.83314
upperback 0.293456 -2.56985 -0.0218354
thorax 15.0027 -1.71325 2.3231
lowerneck -1.03171 1.66447 -3.11931
upperneck 13.1418 2.90471 1.48738
head 4.45171 1.61207 1.19246
rclavicle 8.05078e-015 1.19271e-015
rhumerus -40.589 -13.6014 -81.8364
rradius 37.9769
rwrist -5.98706
rhand -8.11891 -56.9347
rfingers 7.12502
rthumb 17.7944 -446.141
lclavicle 8.05078e-015 1.19271e-015
lhumerus -29.3234 2.14689 80.0901
lradius 28.9956
lwrist 1.51465
lhand -21.1542 -18.5675
lfingers 7.12502
lthumb 5.22545 11.3481
rfemur -26.6681 7.78597 19.2843
rtibia 9.19528
rfoot -17.5925 -4.09312
rtoes -23.0047
lfemur -28.6842 -10.1992 -21.7277
ltibia 14.0889
lfoot -9.43738 -0.0892425
ltoes -33.0868
25
root -1.03593 17.9939 21.0263 -153.617 0.207323 177.878
lowerback -25.5433 -3.05545 -5.88969
upperback 0.39453 -2.53877 -0.0366076
thorax 15.124 -1.70292 2.34847
lowerneck -1.05693 1.63305 -3.04249
upperneck 13.0393 2.85256 1.42599
head 4.42205 1.58313 1.1543
rclavicle -5.46658e-015 1.47101e-014
rhumerus -40.4557 -13.6241 -81.8841
rradius 38.0066
rwrist -6.17557
rhand -9.88848 -54.3076
rfingers 7.12502
rthumb 16.091 -443.659
lclavicle -5.46658e-015 1.47101e-014
lhumerus -29.2583 1.81065 80.2018
lradius 29.1906
lwrist 1.38741
lhand -21.2865 -18.5992
lfingers 7.12502
lthumb 5.09771 11.3195
rfemur -26.6092 7.67101 19.2446
rtibia 9.26752
rfoot -17.682 -3.99658
rtoes -23.2404
lfemur -28.5101 -10.2633 -21.8015
ltibia 13.9356
lfoot -9.41562 0.0449754
ltoes -33.7596
26
root -1.03974 17.9907 21.0276 -153.498 0.311953 177.961
lowerback -25.8295 -3.04729 -5.88359
upperback 0.470159 -2.50878 -0.0038778
thorax 15.3766 -1.69492 2.384
lowerneck -1.08292 1.63185 -2.98919
upperneck 12.9183 2.84053 1.36618
head 4.38451 1.57235 1.12206
rclavicle 1.16289e-014 -1.51076e-014
rhumerus -40.2523 -13.3974 -82.0335
rradius 37.9877
rwrist -6.75573
rhand -8.0915 -56.6301
rfingers 7.12502
rthumb 17.8208 -445.834
lclavicle 1.16289e-014 -1.51076e-014
lhumerus -29.0707 1.5972 80.2976
lradius 29.1725
lwrist 0.953314
lhand -21.4204 -18.629
lfingers 7.12502
lthumb 4.96839 11.2928
rfemur -26.8373 7.57752 19.3485
rtibia 9.41065
rfoot -17.7375 -3.82257
rtoes -23.7371
lfemur -28.6148 -10.2216 -21.7026
ltibia 13.8741
lfoot -9.35096 0.100717
ltoes -33.3303
27
root -1.0444 17.9861 21.0262 -153.36 0.367475 178.042
lowerback -25.9344 -3.03497 -5.81342
upperback 0.426636 -2.51672 0.0153047
thorax 15.3813 -1.69541 2.3604
lowerneck -1.19586 1.66981 -3.0412
upperneck 12.921 2.88763 1.40308
head 4.40562 1.59229 1.14765
rclavicle -9.34288e-015 9.14409e-015
rhumerus -40.2443 -13.1123 -82.1814
rradius 37.9902
rwrist -7.08601
rhand -8.22916 -56.2127
rfingers 7.12502
rthumb 17.6883 -445.428
lclavicle -9.34288e-015 9.14409e-015
lhumerus -29.0271 1.42486 80.3434
lradius 29.0861
lwrist 0.539352
lhand -21.5761 -18.6247
lfingers 7.12502
lthumb 4.8181 11.3005
rfemur -27.0382 7.47245 19.4475
rtibia 9.47702
rfoot -17.7177 -3.65686
rtoes -24.2785
lfemur -28.7445 -10.1617 -21.6159
ltibia 13.8368
lfoot -9.29308 0.074587
ltoes -32.2925
28
root -1.04802 17.9839 21.026 -153.247 0.369825 178.047
lowerback -26.1662 -3.06095 -5.83888
upperback 0.492437 -2.52259 0.0132037
thorax 15.5947 -1.70351 2.36129
lowerneck -1.28757 1.69084 -3.07653
upperneck 12.7949 2.90009 1.41899
head 4.37677 1.5916 1.15872
rclavicle 1.88845e-014 -1.03368e-014
rhumerus -40.0825 -13.1387 -82.2689
rradius 37.9804
rwrist -7.00191
rhand -9.94531 -53.2283
rfingers 7.12502
rthumb 16.0363 -442.585
lclavicle 1.88845e-014 -1.03368e-014
lhumerus -28.8448 1.13611 80.4934
lradius 28.9805
lwrist -0.263443
lhand -21.7453 -18.7398
lfingers 7.12502
lthumb 4.65475 11.1891
rfemur -27.1892 7.44343 19.4412
rtibia 9.54567
rfoot -17.7203 -3.62981
rtoes -24.4883
lfemur -28.8396 -10.0758 -21.6337
ltibia 13.8013
lfoot -9.2834 -0.0395144
ltoes -31.4996
29
root -1.0527 17.9908 21.0232 -153.479 0.32762 178.027
lowerback -26.0202 -3.12251 -5.93274
upperback 0.959691 -2.56913 0.097003
thorax 15.3318 -1.71649 2.37498
lowerneck -1.26922 1.71779 -3.15404
upperneck 12.7392 2.93528 1.41901
head 4.3511 1.60406 1.17223
rclavicle 3.26007e-014 4.37326e-015
rhumerus -39.9858 -13.1225 -82.3632
rradius 38.0097
rwrist -6.71812
rhand -8.62756 -55.4474
rfingers 7.12502
rthumb 17.3049 -444.697
lclavicle 3.26007e-014 4.37326e-015
lhumerus -28.7722 0.91176 80.6666
lradius 28.9272
lwrist -1.1634
lhand -21.8518 -18.905
lfingers 7.12502
lthumb 4.5519 11.0261
rfemur -26.8719 7.37752 19.4422
rtibia 9.49172
rfoot -17.7655 -3.61456
rtoes -24.453
lfemur -28.4949 -10.1511 -21.7024
ltibia 13.6909
lfoot -9.32555 -0.0584772
ltoes -31.2004
30
root -1.05554 17.9858 21.0241 -153.309 0.382138 178.046
lowerback -26.0115 -3.17029 -5.99125
upperback 0.43838 -2.64447 0.0754549
thorax 15.4641 -1.7711 2.47928
lowerneck -1.17206 1.76734 -3.2823
upperneck 12.8491 3.01839 1.46373
head 4.36789 1.64661 1.21373
rclavicle -2.68359e-014 -7.55382e-015
rhumerus -40.251 -12.8631 -82.4688
rradius 38.1594
rwrist -6.40456
rhand -9.59907 -53.8467
rfingers 7.12502
rthumb 16.3697 -443.176
lclavicle -2.68359e-014 -7.55382e-015
lhumerus -29.0103 0.858556 80.6564
lradius 28.9403
lwrist -1.26672
lhand -21.9141 -18.9143
lfingers 7.12502
lthumb 4.49167 11.0181
rfemur -27.1179 7.37511 19.44
rtibia 9.60022
rfoot -17.8215 -3.50718
rtoes -24.2463
lfemur -28.6752 -9.95561 -21.7328
ltibia 13.7064
lfoot -9.33997 -0.201092
ltoes -31.6637
